<svg width="19" height="21" fill="none" xmlns="http://www.w3.org/2000/svg"><path d="M17.75 15.153l-.538-.328a9.293 9.293 0 001.698-5.382C18.91 4.236 14.668 0 9.455 0c-.948 0-1.877.138-2.76.41A9.388 9.388 0 000 9.443c0 1.516.35 2.963 1.037 4.3a9.415 9.415 0 0010.777 4.836l-.002.018v1.941a.435.435 0 00.706.342l1.517-1.198 1.517 1.198a.436.436 0 00.706-.342v-1.941a.435.435 0 00-.198-.365l-.827-.538.065-1.173 2.103.613a.434.434 0 00.558-.418v-1.19a.434.434 0 00-.209-.373zm.288-5.71a8.434 8.434 0 01-1.572 4.93l-.956-.583a.28.28 0 01-.084-.153c.02-.3.156-2.944-1.28-3.315a.432.432 0 00-.219 0c-.561.145-.88.637-1.063 1.197l-1.046-.296-.31-.092c-1.062-.314-2.067-.61-2.33-1.629-.093-.364-.041-.768.136-1.055a.878.878 0 01.58-.411c.072-.017.154-.025.242-.025 2.18 0 3.204-.463 3.902-3.336.15-.62.471-1.219.937-1.787a8.55 8.55 0 013.063 6.556zM6.636 1.354c.553.926.81 1.697.702 2.141a.516.516 0 01-.261.347l-.136.077c-1.532.88-4.096 2.35-2.625 4.984.513.916.465 1.953-.13 2.847-.579.871-1.533 1.39-2.48 1.37a8.436 8.436 0 01-.834-3.675 8.515 8.515 0 015.764-8.09zM2.169 13.968c1.073-.134 2.096-.764 2.744-1.737.77-1.158.832-2.562.164-3.754-.974-1.744.4-2.715 2.298-3.804l.138-.079c.346-.2.579-.51.672-.896.157-.653-.075-1.526-.688-2.6a8.574 8.574 0 016.785 1.262c-.538.664-.912 1.369-1.092 2.109-.624 2.569-1.344 2.671-3.055 2.671-.15 0-.295.015-.428.045a1.74 1.74 0 00-1.136.805c-.301.489-.39 1.135-.237 1.73.385 1.496 1.794 1.912 2.928 2.246l1.421.406a6.926 6.926 0 00-.037 1.226.282.282 0 01-.084.192l-2.24 1.364a.434.434 0 00-.21.372v1.19a.436.436 0 00.558.418l2.102-.612.045.818-.218.08c-1 .395-2.059.596-3.144.596a8.543 8.543 0 01-7.286-4.048zm14.919 2.168l-2.071-.604a.433.433 0 00-.558.395l-.108 1.971a.434.434 0 00.196.39l.84.546v.807l-1.08-.853a.435.435 0 00-.541 0l-1.08.852v-.807l.839-.546a.433.433 0 00.197-.389l-.11-1.972a.436.436 0 00-.556-.394l-2.071.604v-.366l2.062-1.256a.438.438 0 00.047-.033c.258-.208.416-.53.423-.902-.055-.828.078-2.08.52-2.366.441.286.573 1.54.518 2.404a1.153 1.153 0 00.47.898l2.063 1.255v.366z" fill="#DA8907"/></svg>