<svg width="19" height="18" fill="none" xmlns="http://www.w3.org/2000/svg"><path d="M6.188 8.004a1.061 1.061 0 11-2.122 0 1.061 1.061 0 012.122 0zm4.342 0a1.061 1.061 0 11-2.123 0 1.061 1.061 0 012.122 0zm4.34 0a1.061 1.061 0 11-2.122 0 1.061 1.061 0 012.123 0z" fill="#DA8907"/><path d="M.651 17.463a.65.65 0 01-.651-.65V4.167A3.57 3.57 0 013.568.603h11.864A3.57 3.57 0 0119 4.167v6.953a3.57 3.57 0 01-3.568 3.563H3.83l-2.729 2.6a.649.649 0 01-.45.18zM3.57 1.903a2.267 2.267 0 00-2.266 2.264v11.126l1.816-1.73a.65.65 0 01.45-.18h11.862a2.267 2.267 0 002.266-2.263V4.167a2.267 2.267 0 00-2.265-2.263H3.569z" fill="#DA8907"/></svg>