<svg width="16" height="16" fill="none" xmlns="http://www.w3.org/2000/svg"><path fill-rule="evenodd" clip-rule="evenodd" d="M15.79 12.223L11.745 9.29c-.257-.187-.513-.125-.706.062l-.321.312-1.027.998c-.321.312-.835.312-1.22 0L4.683 7.357c-.193-.125-.257-.374-.257-.624s.064-.437.257-.624l1.091-1.06a.555.555 0 00.064-.687L3.078.494C3.012.432 2.884.307 2.691.307c-.128 0-.32 0-.45.125L.639 1.68c-.642.499-.77 1.31-.514 2.059 2.119 5.49 6.677 9.607 12.456 11.478.642.188 1.412 0 1.862-.499.321-.374 1.092-1.31 1.22-1.434.064-.063.128-.188.193-.25.128-.125.128-.25.128-.437.064-.187-.064-.312-.193-.374z" fill="#7587A0"/></svg>