<svg width="18" height="12" fill="none" xmlns="http://www.w3.org/2000/svg"><path d="M15.383 2.813h-7.8a.214.214 0 00-.216.216v3.679H1.733V.432a.214.214 0 00-.216-.216h-1.3A.214.214 0 000 .432v11.252c0 .122.095.217.217.217h1.3a.214.214 0 00.216-.217v-2.38h14.3v2.38c0 .122.095.217.216.217h1.3a.214.214 0 00.217-.216V5.192c0-1.312-1.07-2.38-2.383-2.38zM7.367 8.87h-5.85a.214.214 0 00-.217.217v2.38H.434V.648H1.3v6.276c0 .121.095.216.217.216h5.85v1.731zm9.966 2.597h-.867v-2.38a.214.214 0 00-.216-.216H7.8V3.244h7.583c1.075 0 1.95.875 1.95 1.948v6.275z" fill="#000"/><path d="M2.6 3.897c0 1.075.875 1.95 1.95 1.95 1.074 0 1.95-.875 1.95-1.95s-.876-1.95-1.95-1.95c-1.075 0-1.95.875-1.95 1.95zm3.467 0c0 .836-.68 1.517-1.517 1.517-.836 0-1.517-.68-1.517-1.517a1.518 1.518 0 013.034 0z" fill="#000"/></svg>