<svg width="12" height="13" fill="none" xmlns="http://www.w3.org/2000/svg"><path d="M10.313.216H.937A.938.938 0 000 1.152v10.113c0 .516.42.936.938.936h9.374c.518 0 .938-.42.938-.937V1.152a.938.938 0 00-.938-.936zm.562 11.049c0 .31-.252.561-.563.561H.938a.563.563 0 01-.563-.562V1.152C.375.842.627.59.938.59h9.374c.31 0 .563.252.563.562v10.113z" fill="#000"/><path d="M10.01 1.355a.187.187 0 00-.072-.014H8.063a.187.187 0 100 .375h1.422l-2.68 2.68a.187.187 0 10.265.265l2.68-2.68v1.422a.187.187 0 10.375 0V1.528a.19.19 0 00-.116-.173zM4.18 7.761l-2.68 2.68V9.02a.187.187 0 10-.375 0v1.875a.19.19 0 00.116.173.19.19 0 00.071.014h1.875a.187.187 0 100-.374H1.766l2.68-2.68a.187.187 0 10-.265-.266z" fill="#000"/></svg>