<svg width="18" height="13" fill="none" xmlns="http://www.w3.org/2000/svg"><path d="M16.173 4.25H2.198V1.562a.932.932 0 011.807-.315l.068.187-.391.14a.573.573 0 00-.348.74l.22.609a.209.209 0 00.266.125l1.87-.674a.209.209 0 00.125-.266l-.22-.609a.574.574 0 00-.74-.347l-.39.141-.068-.187a1.348 1.348 0 00-2.616.456V4.25h-.237A1.22 1.22 0 00.318 5.474c0 .306.115.596.314.818 0 .004-.003.007-.003.01 0 .062.028.116.07.154v.83c0 1.457.984 2.703 2.373 3.057l-.31.725a.709.709 0 00.377.94.715.715 0 00.94-.377l.476-1.116c.01-.024.015-.047.023-.071h8.562c.007.024.012.048.023.072l.475 1.114a.715.715 0 001.325-.012.709.709 0 00-.008-.549l-.31-.726a3.146 3.146 0 002.372-3.057v-.923l.024-.023a1.225 1.225 0 00-.868-2.09zM4.997 1.544a.158.158 0 01.123.005.16.16 0 01.084.092l.149.413-1.478.532-.15-.413a.16.16 0 01.097-.206l.588-.212.587-.211zm9.971 3.122v2.972h-2.244V4.666h2.244zM.971 4.902a.805.805 0 01.573-.236h10.764v1.429H1.027A.805.805 0 01.97 4.902zm2.724 6.567a.3.3 0 01-.276.183.3.3 0 01-.117-.027.295.295 0 01-.157-.393l.346-.81c.014.001.028 0 .041.002.111.012.222.02.332.02h.268l-.437 1.025zm10.88-.006a.295.295 0 01-.16.162.298.298 0 01-.117.027.3.3 0 01-.277-.184l-.436-1.024h.267c.11 0 .222-.008.333-.02.013-.001.027 0 .04-.002l.347.811a.295.295 0 01.004.23zm2.17-5.416a.875.875 0 01-.104.087.208.208 0 00-.04.299v.853c0 1.341-.96 2.478-2.283 2.702a2.82 2.82 0 01-.466.04H3.864c-.154 0-.31-.014-.466-.04a2.732 2.732 0 01-2.282-2.702V6.51h11.192v1.335c0 .115.093.208.208.208h2.66a.208.208 0 00.209-.208v-3.18h.788a.81.81 0 01.572 1.38z" fill="#000"/></svg>