<svg width="55" height="52" fill="none" xmlns="http://www.w3.org/2000/svg"><path fill-rule="evenodd" clip-rule="evenodd" d="M14.153 11.795c2.666 0 4.84-2.481 4.84-5.524S16.818.747 14.152.747c-2.665 0-4.84 2.482-4.84 5.524s2.175 5.524 4.84 5.524zm-5.431 3.357c.993-2.082 3.466-2.954 5.525-1.95a4.142 4.142 0 011.815 1.729c.894 1.351 2.366 2.989 4.18 4.33 1.451 1.073 3.096 1.932 4.785 2.245a2.088 2.088 0 011.66 2.433 2.07 2.07 0 01-2.406 1.68c-2.368-.44-4.584-1.575-6.486-2.983a22.1 22.1 0 01-2.135-1.802 58.429 58.429 0 00-.331 2.041c-.413 2.81-.672 5.903-.672 7.32 0 1.936 1.685 4.757 3.062 8.288 1.243 3.187 2.125 6.86 2.185 10.61.02 1.347-1.042 2.455-2.373 2.476-1.33.021-2.427-1.053-2.448-2.399-.05-3.095-.803-6.187-1.863-8.91a29.052 29.052 0 00-1.893-3.962c-.358 2.304-.99 4.778-1.94 7.06-1.267 3.044-3.11 5.795-5.64 7.499a2.398 2.398 0 01-3.346-.688 2.459 2.459 0 01.68-3.384c1.656-1.116 2.933-3.084 3.862-5.32 1.873-4.499 1.417-6.002 1.417-11.27 0-1.702.298-5.317.77-8.533.383-2.612.92-5.106 1.591-6.51zM28.94 25.33h23.508v-4.144a.693.693 0 011.383 0v4.143c.38 0 .692.311.692.691 0 .38-.311.69-.692.69v6.906c.38 0 .692.31.692.69 0 .38-.311.692-.692.692v6.905c.38 0 .692.311.692.69 0 .38-.311.691-.692.691v4.144c0 .38-.311.69-.691.69a.693.693 0 01-.692-.69v-4.144H28.94v4.144c0 .38-.312.69-.692.69a.693.693 0 01-.691-.69v-4.144a.693.693 0 01-.691-.69c0-.38.31-.691.69-.691v-6.907a.693.693 0 01-.69-.69c0-.38.31-.69.69-.69V26.71a.693.693 0 01-.69-.69c0-.38.31-.692.69-.692v-4.143a.693.693 0 011.383 0v4.144zm23.507 1.38H28.94v6.905h23.508l-.001-6.905zm0 8.286H28.94v6.906h23.508l-.001-6.906zM28.249 51.573c.761 0 1.382-.62 1.382-1.382 0-.762-.62-1.383-1.382-1.383-.762 0-1.383.621-1.383 1.383 0 .761.62 1.382 1.383 1.382zm24.89 0c.762 0 1.383-.62 1.383-1.382 0-.762-.62-1.383-1.383-1.383-.762 0-1.382.621-1.382 1.383 0 .761.62 1.382 1.382 1.382z" fill="#596B86"/><path fill-rule="evenodd" clip-rule="evenodd" d="M37.498 18.06a6.908 6.908 0 016.33 6.882H30c0-3.618 2.786-6.585 6.33-6.881a.691.691 0 111.168 0zm11.492-6.542c0 1.905 1.383 2.326 1.383 4.143v8.287c0 .38-.312.691-.692.691h-3.457a.694.694 0 01-.692-.69V20.84h3.458v-3.453h-3.458V15.66c0-1.817 1.383-2.238 1.383-4.143v-2.07h2.075v2.071zm-2.073-5.373h2.074v2.766h-2.074V6.145z" fill="#596B86"/></svg>