<svg width="70" height="50" fill="none" xmlns="http://www.w3.org/2000/svg"><path d="M69.996 12v-1.627c0-.234-.022-.453-.029-.684.002-.046.026-.085.026-.13V3.045A2.45 2.45 0 0067.547.603h-1.63c-2.24 0-4.075 4.398-4.075 9.77v14.74a4.076 4.076 0 013.181 3.175h.08v18.727a2.45 2.45 0 002.443 2.441h.006A2.453 2.453 0 0070 47.015V12h-.004zM10.591.511a.816.816 0 00-.814.814v11.401a.814.814 0 01-.815.814.813.813 0 01-.815-.814V1.325A.816.816 0 007.333.51a.816.816 0 00-.815.814v11.401a.814.814 0 01-1.63 0v-11.4a.815.815 0 00-1.63 0v11.401a.816.816 0 01-1.628 0V1.325a.815.815 0 00-1.63 0v15.123c0 1.561 1.37 2.886 3.26 3.387v27.089a2.45 2.45 0 002.447 2.441 2.452 2.452 0 002.446-2.441L8.15 19.835c1.89-.5 3.261-1.826 3.261-3.387V1.325a.823.823 0 00-.819-.814zM35 9.835c-6.445 0-11.668 5.218-11.668 11.655H46.67C46.668 15.054 41.445 9.835 35 9.835zm0 2.098c4.556 0 8.377 3.194 9.337 7.458H25.664c.96-4.264 4.78-7.458 9.336-7.458zM33.948.511h2.098v6.993h-2.098V.511zM16.932 8.927l6.064 3.5-1.05 1.818-6.064-3.5 1.05-1.818zM25.57 2.38l3.5 6.056-1.819 1.049-3.5-6.056 1.82-1.049zm27.534 6.543l1.05 1.818-6.06 3.504-1.051-1.818 6.06-3.504zm-8.64-6.543l1.818 1.05-3.504 6.053-1.819-1.05 3.505-6.053zM52.05 26l-6.61.002H19v9.903c0 5.445 4.465 9.903 9.916 9.903h11.569c4.288 0 7.925-2.773 9.3-6.601h2.265a6.61 6.61 0 006.611-6.605c0-3.645-2.962-6.602-6.61-6.602h-.002zm0 8.752h-1.653v-4.293h1.652a2.147 2.147 0 110 4.293z" fill="#596B86"/></svg>