<svg width="59" height="50" fill="none" xmlns="http://www.w3.org/2000/svg"><path d="M32.337 46.245a3.205 3.205 0 01-3.207 3.203 3.205 3.205 0 01-3.207-3.203 3.205 3.205 0 013.207-3.203 3.205 3.205 0 013.207 3.203zM42.646 30.35a21.388 21.388 0 00-27.03 0 2.924 2.924 0 001.562 5.204c.783.069 1.56-.18 2.158-.689a15.53 15.53 0 0119.59 0 2.93 2.93 0 004.817-2.532 2.923 2.923 0 00-1.097-1.983z" fill="#596B86"/><path d="M55.236 24.54c.647-7.082-5.365-13.728-12.482-13.812C38.85-2.732 21.34-3.805 15.98 9.092 7.592 11.086 2.754 16.977 4.05 23.917.657 25.564-.382 29.182.12 31.974a6.611 6.611 0 002.26 4.038 6.629 6.629 0 004.354 1.572h7.439a.697.697 0 00.432-1.22 4.33 4.33 0 01.14-6.587 22.762 22.762 0 0128.772 0c2.054 1.593 2.146 4.95.123 6.601a.69.69 0 00.449 1.206h7.349c3.837.179 6.764-3.312 6.814-7.08-.08-2.667-1.146-4.766-3.015-5.964zm-44.605.556a.687.687 0 01-.93.28 5.901 5.901 0 00-4.619-.417.686.686 0 00.426-.837 5.816 5.816 0 01-.132-.669 7.459 7.459 0 014.975.715.685.685 0 01.28.928zm14.518-13.855a.687.687 0 01-.935.265 11.526 11.526 0 00-7.56-1.167.686.686 0 00.468-.416c.152-.375.312-.746.49-1.103a12.926 12.926 0 017.272 1.488c.33.184.45.602.265.933zm7.793 5.692a.687.687 0 11-1.117-.796 12.71 12.71 0 019.492-5.381c.092.274.175.549.252.832a.71.71 0 00.665.509 11.332 11.332 0 00-9.292 4.836zm18.18 7.724a.687.687 0 110-1.372 7.232 7.232 0 012.772.544c-.005.334-.028.673-.065 1.007a.687.687 0 00.321.659 5.811 5.811 0 00-3.028-.838z" fill="#596B86"/><path d="M36.122 36.637a12.458 12.458 0 00-13.983 0 2.928 2.928 0 00.446 5.053c.95.44 2.063.343 2.921-.258a6.571 6.571 0 017.248 0 2.937 2.937 0 004.085-.716 2.927 2.927 0 00-.717-4.08z" fill="#596B86"/></svg>