<svg width="54" height="54" fill="none" xmlns="http://www.w3.org/2000/svg"><path d="M53.165 51.579h-7.628a5.214 5.214 0 002.405-4.39 5.232 5.232 0 00-10.462 0c0 1.845.953 3.463 2.396 4.39h-22.9a5.214 5.214 0 002.405-4.39 5.232 5.232 0 00-10.462 0c0 1.845.953 3.463 2.397 4.39H1.123a.836.836 0 00-.835.834c0 .455.371.834.835.834h52.042a.836.836 0 00.835-.834.836.836 0 00-.835-.834zm-10.463-6.497c1.165 0 2.11.944 2.11 2.106a2.109 2.109 0 01-4.219 0 2.103 2.103 0 012.11-2.106zm-28.56 0c1.164 0 2.109.944 2.109 2.106a2.109 2.109 0 01-4.219 0c0-1.163.945-2.106 2.11-2.106zM2.464 15.874l7.113.084a2.2 2.2 0 002.236-2.182 2.206 2.206 0 00-2.186-2.233h-.033c.008-.043.008-.068.008-.11a2.96 2.96 0 00-2.92-2.983 2.945 2.945 0 00-2.978 2.781 2.457 2.457 0 00-1.19-.32A2.48 2.48 0 000 13.363a2.487 2.487 0 002.464 2.511zM41.75 3.313c.464 0 .835-.38.835-.835v-.895a.832.832 0 00-.835-.835.837.837 0 00-.835.835v.886a.833.833 0 00.835.844zm-3.3.27c.152.27.44.422.726.422a.83.83 0 00.726-1.257l-.448-.777a.83.83 0 00-1.147-.303.83.83 0 00-.304 1.147l.447.768zm-2.345 1.743l.767.439c.136.075.279.11.422.11a.836.836 0 00.726-.423.847.847 0 00-.304-1.147l-.768-.447a.84.84 0 00-1.147.304.85.85 0 00.303 1.164zm-.397 3.126h.886c.464 0 .835-.38.835-.835a.832.832 0 00-.835-.835h-.886a.837.837 0 00-.835.835c0 .455.37.835.835.835zM43.9 3.887a.86.86 0 00.423.11.836.836 0 00.725-.423l.447-.768a.847.847 0 00-.303-1.147.84.84 0 00-1.148.304l-.447.768a.84.84 0 00.304 1.156zm-1.467 5.035a2.504 2.504 0 00-1.249-.32 2.607 2.607 0 00-2.607 2.604 2.613 2.613 0 002.607 2.604h7.459a2.317 2.317 0 100-4.635h-.034a.545.545 0 00.009-.118 3.097 3.097 0 00-3.097-3.092 3.097 3.097 0 00-3.088 2.957zm-4.008-1.311c0 .11.017.211.026.32a4.26 4.26 0 012.725-1.003h.068a4.751 4.751 0 012.202-2.16 3.231 3.231 0 00-1.696-.481 3.331 3.331 0 00-3.325 3.324zm-35.353 28.9c0-.665.11-1.314.329-1.92l1.46-4.197a2.548 2.548 0 00-1.325-.371 2.58 2.58 0 00-2.582 2.579v7.323c0 1.264.92 2.317 2.126 2.528V36.51h-.008z" fill="#596B86"/><path d="M7.747 27.183l-2.768 7.972a4.164 4.164 0 00-.227 1.357v6.169h4.176a6.885 6.885 0 015.223-2.394c2.084 0 3.957.935 5.223 2.394h18.115a6.885 6.885 0 015.223-2.394c2.084 0 3.957.935 5.222 2.394h2.903v-2.512a4.676 4.676 0 00-4.345-4.66l-6.193-.438-4.928-8.595a4.161 4.161 0 00-3.594-2.082H11.662a4.154 4.154 0 00-3.915 2.79zm14.824 1.155c0-.53.43-.969.97-.969h8.219c.421 0 .81.227 1.02.59l3.603 6.286a.966.966 0 01-.843 1.45H23.542a.97.97 0 01-.97-.97v-6.387zm-2.607 0v6.396a.97.97 0 01-.97.969H9.3a.963.963 0 01-.911-1.281l2.168-6.261c.16-.472.608-.784 1.105-.784h7.333c.54-.008.97.422.97.961zm29.649 18.855c0 .54-.068 1.063-.186 1.569h2.042a1.03 1.03 0 001.03-1.03v-2.345a1.03 1.03 0 00-1.03-1.03h-2.472a6.93 6.93 0 01.616 2.836zm-45.52-2.835c-.565 0-1.03.455-1.03 1.029v2.345c0 .566.456 1.03 1.03 1.03h3.324a6.787 6.787 0 01.43-4.404H4.094zm16.351 0c.388.868.616 1.822.616 2.834 0 .54-.067 1.063-.185 1.57h15.111a6.787 6.787 0 01.43-4.404H20.444z" fill="#596B86"/></svg>