<svg width="56" height="49" fill="none" xmlns="http://www.w3.org/2000/svg"><path d="M48.645 7.42c0-.88-.703-1.583-1.583-1.583h-1.7v3.224h1.7c.88-.059 1.583-.763 1.583-1.642z" fill="#596B86"/><path d="M40.38 18.188h4.748v8.604l3.106.586v-9.19h4.748a2.412 2.412 0 002.403-2.4V3.144c0-1.346-1.114-2.4-2.403-2.4h-12.6a2.412 2.412 0 00-2.404 2.4V15.73c-.058 1.346 1.055 2.459 2.403 2.459zm3.05-14.341h3.633a3.525 3.525 0 013.517 3.512 3.525 3.525 0 01-3.517 3.512h-1.7v4.097H43.43V3.847zm8.965 27.218l-11.487-2.107c-.117 0-.234-.117-.293-.175-1.113-1.347-8.205-8.78-12.835-8.78H11.546c-3.81 0-7.268 3.57-9.436 6.555C.703 28.431 0 30.714 0 33.056v6.79a3.925 3.925 0 003.927 3.921h.879c.703 2.81 3.223 4.917 6.27 4.917 3.049 0 5.569-2.107 6.272-4.917h21.158c.703 2.81 3.223 4.917 6.27 4.917 3.049 0 5.568-2.107 6.272-4.917h.117c1.934 0 3.634-1.463 3.869-3.395l.644-4.916c.175-2.108-1.231-4.04-3.282-4.39zM10.96 45.582a3.4 3.4 0 01-3.4-3.395 3.4 3.4 0 016.799 0c.059 1.873-1.465 3.395-3.4 3.395zm7.677-15.687H8.44c-.527 0-.879-.527-.586-.995 1.524-2.693 5.334-5.327 7.209-5.327h2.579c.351 0 .644.234.703.585l.996 4.917c.06.41-.293.82-.703.82zm16.41 0H23.795a.696.696 0 01-.703-.586l-.997-4.917a.708.708 0 01.704-.82h4.98c1.7 0 5.217 2.694 7.737 5.093.469.469.176 1.23-.468 1.23zm9.612 15.687a3.4 3.4 0 01-3.4-3.395 3.4 3.4 0 016.8 0 3.4 3.4 0 01-3.4 3.395z" fill="#596B86"/></svg>