<svg width="50" height="50" fill="none" xmlns="http://www.w3.org/2000/svg"><path fill-rule="evenodd" clip-rule="evenodd" d="M6.435 24.497l9.77 9.639a1.97 1.97 0 001.383.565h30.458c.518 0 1.015.203 1.382.565.366.361.572.852.572 1.363v5.783c0 .472-.176.928-.494 1.281a1.964 1.964 0 01-1.232.634l-.228.013H44.26l1.818 2.527.008.01a1.913 1.913 0 01-.49 2.691l-.038.027c-.423.289-.944.4-1.45.313a1.958 1.958 0 01-1.254-.783l-3.436-4.78-.004-.003H10.908l-.004.004-3.436 4.779a1.958 1.958 0 01-1.254.783 1.977 1.977 0 01-1.45-.313l-.04-.027a1.91 1.91 0 01-.482-2.699L6.06 44.34H3.1a1.96 1.96 0 01-1.693-.964 1.906 1.906 0 010-1.928 1.96 1.96 0 011.693-.964l3.908-3.855L.572 30.28a1.914 1.914 0 010-2.725l3.1-3.058a1.967 1.967 0 011.381-.564c.518 0 1.015.202 1.382.564zm2.527 14.06l-1.955 1.928h3.733a1.93 1.93 0 00-.397-.565l-1.381-1.363zm21.496-19.279v13.495H26.55V19.278H12.87c-.829 0-1.657-.694-1.89-1.49a17.248 17.248 0 014.93-10.622 17.687 17.687 0 0110.64-5.132v-.106c0-.69.372-1.326.977-1.67a1.978 1.978 0 011.954 0c.605.344.977.98.977 1.67v.106c4.04.446 7.8 2.26 10.638 5.13a17.253 17.253 0 014.931 10.62c-.23.8-1.06 1.494-1.89 1.494H30.459z" fill="#596B86"/></svg>