<?xml version="1.0" encoding="utf-8"?><svg viewBox="0 0 147 147" xmlns="http://www.w3.org/2000/svg" xmlns:xlink="http://www.w3.org/1999/xlink"><style>:root>svg{display:none}:root>svg:target{display:block}</style><svg fill="none" viewBox="0 0 55 55" id="about-bg-after" xmlns="http://www.w3.org/2000/svg"><path d="M27 41.682 13.682 55V41.682H0L13.682 28H27v13.682zm1-27.492L14.19 28V14.19H0L14.19 0H28v14.19zm27 27.492L41.682 55V41.682H28L41.682 28H55v13.682zm0-27.492L41.682 28V14.19H28L41.682 0H55v14.19z" fill="#A0B0C6"/></svg><svg fill="none" viewBox="0 0 147 147" id="about-bg-before" xmlns="http://www.w3.org/2000/svg"><path d="M72 111.486 36.486 147v-35.514H0L36.486 75H72v36.486zm3-73.479L38.007 75V38.007H0L38.007 0H75v38.007zm72 73.479L111.486 147v-35.514H75L111.486 75H147v36.486zm0-73.479L111.486 75V38.007H75L111.486 0H147v38.007z" fill="#7188AA" fill-opacity=".26"/></svg><svg fill="none" viewBox="0 0 19 21" id="blog-link1" xmlns="http://www.w3.org/2000/svg"><path d="m17.75 15.153-.538-.328a9.293 9.293 0 0 0 1.698-5.382C18.91 4.236 14.668 0 9.455 0c-.948 0-1.877.138-2.76.41A9.388 9.388 0 0 0 0 9.443c0 1.516.35 2.963 1.037 4.3a9.415 9.415 0 0 0 10.777 4.836l-.002.018v1.941a.435.435 0 0 0 .706.342l1.517-1.198 1.517 1.198a.436.436 0 0 0 .706-.342v-1.941a.435.435 0 0 0-.198-.365l-.827-.538.065-1.173 2.103.613a.434.434 0 0 0 .558-.418v-1.19a.434.434 0 0 0-.209-.373zm.288-5.71a8.434 8.434 0 0 1-1.572 4.93l-.956-.583a.28.28 0 0 1-.084-.153c.02-.3.156-2.944-1.28-3.315a.432.432 0 0 0-.219 0c-.561.145-.88.637-1.063 1.197l-1.046-.296-.31-.092c-1.062-.314-2.067-.61-2.33-1.629-.093-.364-.041-.768.136-1.055a.878.878 0 0 1 .58-.411c.072-.017.154-.025.242-.025 2.18 0 3.204-.463 3.902-3.336.15-.62.471-1.219.937-1.787a8.55 8.55 0 0 1 3.063 6.556zM6.636 1.354c.553.926.81 1.697.702 2.141a.516.516 0 0 1-.261.347l-.136.077c-1.532.88-4.096 2.35-2.625 4.984.513.916.465 1.953-.13 2.847-.579.871-1.533 1.39-2.48 1.37a8.436 8.436 0 0 1-.834-3.675 8.515 8.515 0 0 1 5.764-8.09zM2.169 13.968c1.073-.134 2.096-.764 2.744-1.737.77-1.158.832-2.562.164-3.754-.974-1.744.4-2.715 2.298-3.804l.138-.079c.346-.2.579-.51.672-.896.157-.653-.075-1.526-.688-2.6a8.574 8.574 0 0 1 6.785 1.262c-.538.664-.912 1.369-1.092 2.109-.624 2.569-1.344 2.671-3.055 2.671-.15 0-.295.015-.428.045a1.74 1.74 0 0 0-1.136.805c-.301.489-.39 1.135-.237 1.73.385 1.496 1.794 1.912 2.928 2.246l1.421.406a6.926 6.926 0 0 0-.037 1.226.282.282 0 0 1-.084.192l-2.24 1.364a.434.434 0 0 0-.21.372v1.19a.436.436 0 0 0 .558.418l2.102-.612.045.818-.218.08c-1 .395-2.059.596-3.144.596a8.543 8.543 0 0 1-7.286-4.048zm14.919 2.168-2.071-.604a.433.433 0 0 0-.558.395l-.108 1.971a.434.434 0 0 0 .196.39l.84.546v.807l-1.08-.853a.435.435 0 0 0-.541 0l-1.08.852v-.807l.839-.546a.433.433 0 0 0 .197-.389l-.11-1.972a.436.436 0 0 0-.556-.394l-2.071.604v-.366l2.062-1.256a.438.438 0 0 0 .047-.033c.258-.208.416-.53.423-.902-.055-.828.078-2.08.52-2.366.441.286.573 1.54.518 2.404a1.153 1.153 0 0 0 .47.898l2.063 1.255v.366z" fill="#DA8907"/></svg><svg fill="none" viewBox="0 0 19 18" id="blog-link2" xmlns="http://www.w3.org/2000/svg"><path d="M6.188 8.004a1.061 1.061 0 1 1-2.122 0 1.061 1.061 0 0 1 2.122 0zm4.342 0a1.061 1.061 0 1 1-2.123 0 1.061 1.061 0 0 1 2.122 0zm4.34 0a1.061 1.061 0 1 1-2.122 0 1.061 1.061 0 0 1 2.123 0z" fill="#DA8907"/><path d="M.651 17.463a.65.65 0 0 1-.651-.65V4.167A3.57 3.57 0 0 1 3.568.603h11.864A3.57 3.57 0 0 1 19 4.167v6.953a3.57 3.57 0 0 1-3.568 3.563H3.83l-2.729 2.6a.649.649 0 0 1-.45.18zM3.57 1.903a2.267 2.267 0 0 0-2.266 2.264v11.126l1.816-1.73a.65.65 0 0 1 .45-.18h11.862a2.267 2.267 0 0 0 2.266-2.263V4.167a2.267 2.267 0 0 0-2.265-2.263H3.569z" fill="#DA8907"/></svg><svg fill="none" viewBox="0 0 23 10" id="blog-more" xmlns="http://www.w3.org/2000/svg"><path d="M21.143 4.789v.759H0v-.76h21.143z" fill="#596B86"/><path d="m14.614 9.257 6.263-4.095-6.263-4.094.418-.645 7.25 4.74-7.25 4.738-.418-.644z" fill="#596B86"/></svg><svg fill="none" viewBox="0 0 13 19" id="contact-icon1" xmlns="http://www.w3.org/2000/svg"><path d="M6.384.363A6.384 6.384 0 0 0 0 6.739c0 3.165 5.244 10.292 6.407 11.84 1.163-1.548 6.361-8.698 6.361-11.863C12.745 3.209 9.895.363 6.384.363zm0 9.336a2.888 2.888 0 0 1-2.873-2.87 2.874 2.874 0 0 1 5.746 0c0 1.594-1.3 2.87-2.873 2.87z" fill="#7587A0"/></svg><svg fill="none" viewBox="0 0 16 16" id="contact-icon2" xmlns="http://www.w3.org/2000/svg"><path fill-rule="evenodd" clip-rule="evenodd" d="M15.79 12.223 11.745 9.29c-.257-.187-.513-.125-.706.062l-.321.312-1.027.998c-.321.312-.835.312-1.22 0L4.683 7.357c-.193-.125-.257-.374-.257-.624s.064-.437.257-.624l1.091-1.06a.555.555 0 0 0 .064-.687L3.078.494C3.012.432 2.884.307 2.691.307c-.128 0-.32 0-.45.125L.639 1.68c-.642.499-.77 1.31-.514 2.059 2.119 5.49 6.677 9.607 12.456 11.478.642.188 1.412 0 1.862-.499.321-.374 1.092-1.31 1.22-1.434.064-.063.128-.188.193-.25.128-.125.128-.25.128-.437.064-.187-.064-.312-.193-.374z" fill="#7587A0"/></svg><svg fill="none" viewBox="0 0 18 12" id="contact-icon3" xmlns="http://www.w3.org/2000/svg"><path d="M1.261.253c-.165 0-.322.035-.466.092L8.11 6.563c.32.273.678.273.999 0L16.43.34a1.269 1.269 0 0 0-.46-.085H1.261zM.013 1.33C.005 1.39 0 1.451 0 1.513v8.395c0 .698.562 1.26 1.261 1.26h14.71c.699 0 1.261-.562 1.261-1.26V1.513c0-.062-.004-.125-.013-.184L9.93 7.521a2.05 2.05 0 0 1-2.64 0L.014 1.329z" fill="#7587A0"/></svg><svg fill="none" viewBox="0 0 16 15" id="facebook" xmlns="http://www.w3.org/2000/svg"><path d="M8.01.058C3.978.058.708 3.343.708 7.395a7.321 7.321 0 0 0 6.21 7.246V9.34H5.113V7.411H6.92V6.127c0-2.124 1.03-3.057 2.787-3.057.842 0 1.287.063 1.498.091v1.684h-1.199c-.746 0-1.007.71-1.007 1.512V7.41h2.187l-.296 1.928H9v5.318a7.32 7.32 0 0 0 6.313-7.262c0-4.052-3.27-7.337-7.302-7.337z" fill="#00B2FF"/></svg><svg fill="none" viewBox="0 0 13 13" id="instagram" xmlns="http://www.w3.org/2000/svg"><path d="M3.862.299a3.695 3.695 0 0 0-3.69 3.69v5.272a3.696 3.696 0 0 0 3.692 3.69h5.273a3.696 3.696 0 0 0 3.691-3.691V3.988A3.695 3.695 0 0 0 9.136.298H3.862zm6.435 2.024a.506.506 0 1 1 0 1.013.506.506 0 0 1 0-1.013zM6.5 3.335a3.293 3.293 0 0 1 3.29 3.29 3.293 3.293 0 0 1-3.29 3.29 3.293 3.293 0 0 1-3.29-3.29 3.293 3.293 0 0 1 3.29-3.29zm0 1.012a2.278 2.278 0 1 0-.001 4.556A2.278 2.278 0 0 0 6.5 4.347z" fill="#D23939"/></svg><svg fill="none" viewBox="0 0 130 130" id="play-video" xmlns="http://www.w3.org/2000/svg"><circle cx="65" cy="65" r="65" fill="#F6FCFA" fill-opacity=".42"/><path d="M65 16.327c-24.375 0-44.318 19.918-44.318 44.262 0 24.345 19.943 44.263 44.318 44.263 24.375 0 44.318-19.918 44.318-44.263 0-24.344-19.943-44.262-44.318-44.262zm17.358 47.95-24.744 13.28c-2.955 1.475-6.279-.37-6.279-3.689V47.311c0-3.32 3.694-5.533 6.279-3.69l24.744 13.28c3.324 1.475 3.324 5.901 0 7.377z" fill="#F6FCFA"/></svg><svg fill="none" viewBox="0 0 64 65" id="play-watch" xmlns="http://www.w3.org/2000/svg"><g filter="url(#la)"><path d="M32 8.419c-11 0-20 8.988-20 19.975 0 10.986 9 19.974 20 19.974s20-8.988 20-19.974c0-10.987-9-19.975-20-19.975zm7.833 21.64L28.667 36.05c-1.334.666-2.834-.167-2.834-1.665V22.401c0-1.498 1.667-2.497 2.834-1.664l11.166 5.992c1.5.666 1.5 2.663 0 3.33z" fill="#597193"/></g><defs><filter id="la" x="0" y=".419" width="64" height="63.95" filterUnits="userSpaceOnUse" color-interpolation-filters="sRGB"><feFlood flood-opacity="0" result="BackgroundImageFix"/><feColorMatrix in="SourceAlpha" values="0 0 0 0 0 0 0 0 0 0 0 0 0 0 0 0 0 0 127 0" result="hardAlpha"/><feOffset dy="4"/><feGaussianBlur stdDeviation="6"/><feComposite in2="hardAlpha" operator="out"/><feColorMatrix values="0 0 0 0 0.0833333 0 0 0 0 0.0833333 0 0 0 0 0.0833333 0 0 0 0.15 0"/><feBlend in2="BackgroundImageFix" result="effect1_dropShadow_58_487"/><feBlend in="SourceGraphic" in2="effect1_dropShadow_58_487" result="shape"/></filter></defs></svg><svg fill="none" viewBox="0 0 12 13" id="populer-icon-1" xmlns="http://www.w3.org/2000/svg"><path d="M10.313.216H.937A.938.938 0 0 0 0 1.152v10.113c0 .516.42.936.938.936h9.374c.518 0 .938-.42.938-.937V1.152a.938.938 0 0 0-.938-.936zm.562 11.049c0 .31-.252.561-.563.561H.938a.563.563 0 0 1-.563-.562V1.152C.375.842.627.59.938.59h9.374c.31 0 .563.252.563.562v10.113z" fill="#000"/><path d="M10.01 1.355a.187.187 0 0 0-.072-.014H8.063a.187.187 0 1 0 0 .375h1.422l-2.68 2.68a.187.187 0 1 0 .265.265l2.68-2.68v1.422a.187.187 0 1 0 .375 0V1.528a.19.19 0 0 0-.116-.173zM4.18 7.761l-2.68 2.68V9.02a.187.187 0 1 0-.375 0v1.875a.19.19 0 0 0 .116.173.19.19 0 0 0 .071.014h1.875a.187.187 0 1 0 0-.374H1.766l2.68-2.68a.187.187 0 1 0-.265-.266z" fill="#000"/></svg><svg fill="none" viewBox="0 0 18 12" id="populer-icon-2" xmlns="http://www.w3.org/2000/svg"><path d="M15.383 2.813h-7.8a.214.214 0 0 0-.216.216v3.679H1.733V.432a.214.214 0 0 0-.216-.216h-1.3A.214.214 0 0 0 0 .432v11.252c0 .122.095.217.217.217h1.3a.214.214 0 0 0 .216-.217v-2.38h14.3v2.38c0 .122.095.217.216.217h1.3a.214.214 0 0 0 .217-.216V5.192c0-1.312-1.07-2.38-2.383-2.38zM7.367 8.87h-5.85a.214.214 0 0 0-.217.217v2.38H.434V.648H1.3v6.276c0 .121.095.216.217.216h5.85v1.731zm9.966 2.597h-.867v-2.38a.214.214 0 0 0-.216-.216H7.8V3.244h7.583c1.075 0 1.95.875 1.95 1.948v6.275z" fill="#000"/><path d="M2.6 3.897c0 1.075.875 1.95 1.95 1.95 1.074 0 1.95-.875 1.95-1.95s-.876-1.95-1.95-1.95c-1.075 0-1.95.875-1.95 1.95zm3.467 0c0 .836-.68 1.517-1.517 1.517-.836 0-1.517-.68-1.517-1.517a1.518 1.518 0 0 1 3.034 0z" fill="#000"/></svg><svg fill="none" viewBox="0 0 18 13" id="populer-icon-3" xmlns="http://www.w3.org/2000/svg"><path d="M16.173 4.25H2.198V1.562a.932.932 0 0 1 1.807-.315l.068.187-.391.14a.573.573 0 0 0-.348.74l.22.609a.209.209 0 0 0 .266.125l1.87-.674a.209.209 0 0 0 .125-.266l-.22-.609a.574.574 0 0 0-.74-.347l-.39.141-.068-.187a1.348 1.348 0 0 0-2.616.456V4.25h-.237A1.22 1.22 0 0 0 .318 5.474c0 .306.115.596.314.818 0 .004-.003.007-.003.01 0 .062.028.116.07.154v.83c0 1.457.984 2.703 2.373 3.057l-.31.725a.709.709 0 0 0 .377.94.715.715 0 0 0 .94-.377l.476-1.116c.01-.024.015-.047.023-.071h8.562c.007.024.012.048.023.072l.475 1.114a.715.715 0 0 0 1.325-.012.709.709 0 0 0-.008-.549l-.31-.726a3.146 3.146 0 0 0 2.372-3.057v-.923l.024-.023a1.225 1.225 0 0 0-.868-2.09zM4.997 1.544a.158.158 0 0 1 .123.005.16.16 0 0 1 .084.092l.149.413-1.478.532-.15-.413a.16.16 0 0 1 .097-.206l.588-.212.587-.211zm9.971 3.122v2.972h-2.244V4.666h2.244zM.971 4.902a.805.805 0 0 1 .573-.236h10.764v1.429H1.027A.805.805 0 0 1 .97 4.902zm2.724 6.567a.3.3 0 0 1-.276.183.3.3 0 0 1-.117-.027.295.295 0 0 1-.157-.393l.346-.81c.014.001.028 0 .041.002.111.012.222.02.332.02h.268l-.437 1.025zm10.88-.006a.295.295 0 0 1-.16.162.298.298 0 0 1-.117.027.3.3 0 0 1-.277-.184l-.436-1.024h.267c.11 0 .222-.008.333-.02.013-.001.027 0 .04-.002l.347.811a.295.295 0 0 1 .004.23zm2.17-5.416a.875.875 0 0 1-.104.087.208.208 0 0 0-.04.299v.853c0 1.341-.96 2.478-2.283 2.702a2.82 2.82 0 0 1-.466.04H3.864c-.154 0-.31-.014-.466-.04a2.732 2.732 0 0 1-2.282-2.702V6.51h11.192v1.335c0 .115.093.208.208.208h2.66a.208.208 0 0 0 .209-.208v-3.18h.788a.81.81 0 0 1 .572 1.38z" fill="#000"/></svg><svg fill="none" viewBox="0 0 54 54" id="services-icon1" xmlns="http://www.w3.org/2000/svg"><path d="M53.165 51.579h-7.628a5.214 5.214 0 0 0 2.405-4.39 5.232 5.232 0 0 0-10.462 0c0 1.845.953 3.463 2.396 4.39h-22.9a5.214 5.214 0 0 0 2.405-4.39 5.232 5.232 0 0 0-10.462 0c0 1.845.953 3.463 2.397 4.39H1.123a.836.836 0 0 0-.835.834c0 .455.371.834.835.834h52.042a.836.836 0 0 0 .835-.834.836.836 0 0 0-.835-.834zm-10.463-6.497c1.165 0 2.11.944 2.11 2.106a2.109 2.109 0 0 1-4.219 0 2.103 2.103 0 0 1 2.11-2.106zm-28.56 0c1.164 0 2.109.944 2.109 2.106a2.109 2.109 0 0 1-4.219 0c0-1.163.945-2.106 2.11-2.106zM2.464 15.874l7.113.084a2.2 2.2 0 0 0 2.236-2.182 2.206 2.206 0 0 0-2.186-2.233h-.033c.008-.043.008-.068.008-.11a2.96 2.96 0 0 0-2.92-2.983 2.945 2.945 0 0 0-2.978 2.781 2.457 2.457 0 0 0-1.19-.32A2.48 2.48 0 0 0 0 13.363a2.487 2.487 0 0 0 2.464 2.511zM41.75 3.313c.464 0 .835-.38.835-.835v-.895a.832.832 0 0 0-.835-.835.837.837 0 0 0-.835.835v.886a.833.833 0 0 0 .835.844zm-3.3.27c.152.27.44.422.726.422a.83.83 0 0 0 .726-1.257l-.448-.777a.83.83 0 0 0-1.147-.303.83.83 0 0 0-.304 1.147l.447.768zm-2.345 1.743.767.439c.136.075.279.11.422.11a.836.836 0 0 0 .726-.423.847.847 0 0 0-.304-1.147l-.768-.447a.84.84 0 0 0-1.147.304.85.85 0 0 0 .303 1.164zm-.397 3.126h.886c.464 0 .835-.38.835-.835a.832.832 0 0 0-.835-.835h-.886a.837.837 0 0 0-.835.835c0 .455.37.835.835.835zM43.9 3.887a.86.86 0 0 0 .423.11.836.836 0 0 0 .725-.423l.447-.768a.847.847 0 0 0-.303-1.147.84.84 0 0 0-1.148.304l-.447.768a.84.84 0 0 0 .304 1.156zm-1.467 5.035a2.504 2.504 0 0 0-1.249-.32 2.607 2.607 0 0 0-2.607 2.604 2.613 2.613 0 0 0 2.607 2.604h7.459a2.317 2.317 0 1 0 0-4.635h-.034a.545.545 0 0 0 .009-.118 3.097 3.097 0 0 0-3.097-3.092 3.097 3.097 0 0 0-3.088 2.957zm-4.008-1.311c0 .11.017.211.026.32a4.26 4.26 0 0 1 2.725-1.003h.068a4.751 4.751 0 0 1 2.202-2.16 3.231 3.231 0 0 0-1.696-.481 3.331 3.331 0 0 0-3.325 3.324zm-35.353 28.9c0-.665.11-1.314.329-1.92l1.46-4.197a2.548 2.548 0 0 0-1.325-.371 2.58 2.58 0 0 0-2.582 2.579v7.323c0 1.264.92 2.317 2.126 2.528V36.51h-.008z" fill="#596B86"/><path d="m7.747 27.183-2.768 7.972a4.164 4.164 0 0 0-.227 1.357v6.169h4.176a6.885 6.885 0 0 1 5.223-2.394c2.084 0 3.957.935 5.223 2.394h18.115a6.885 6.885 0 0 1 5.223-2.394c2.084 0 3.957.935 5.222 2.394h2.903v-2.512a4.676 4.676 0 0 0-4.345-4.66l-6.193-.438-4.928-8.595a4.161 4.161 0 0 0-3.594-2.082H11.662a4.154 4.154 0 0 0-3.915 2.79zm14.824 1.155c0-.53.43-.969.97-.969h8.219c.421 0 .81.227 1.02.59l3.603 6.286a.966.966 0 0 1-.843 1.45H23.542a.97.97 0 0 1-.97-.97v-6.387zm-2.607 0v6.396a.97.97 0 0 1-.97.969H9.3a.963.963 0 0 1-.911-1.281l2.168-6.261c.16-.472.608-.784 1.105-.784h7.333c.54-.008.97.422.97.961zm29.649 18.855c0 .54-.068 1.063-.186 1.569h2.042a1.03 1.03 0 0 0 1.03-1.03v-2.345a1.03 1.03 0 0 0-1.03-1.03h-2.472a6.93 6.93 0 0 1 .616 2.836zm-45.52-2.835c-.565 0-1.03.455-1.03 1.029v2.345c0 .566.456 1.03 1.03 1.03h3.324a6.787 6.787 0 0 1 .43-4.404H4.094zm16.351 0c.388.868.616 1.822.616 2.834 0 .54-.067 1.063-.185 1.57h15.111a6.787 6.787 0 0 1 .43-4.404H20.444z" fill="#596B86"/></svg><svg fill="none" viewBox="0 0 56 49" id="services-icon2" xmlns="http://www.w3.org/2000/svg"><path d="M48.645 7.42c0-.88-.703-1.583-1.583-1.583h-1.7v3.224h1.7c.88-.059 1.583-.763 1.583-1.642z" fill="#596B86"/><path d="M40.38 18.188h4.748v8.604l3.106.586v-9.19h4.748a2.412 2.412 0 0 0 2.403-2.4V3.144c0-1.346-1.114-2.4-2.403-2.4h-12.6a2.412 2.412 0 0 0-2.404 2.4V15.73c-.058 1.346 1.055 2.459 2.403 2.459zm3.05-14.341h3.633a3.525 3.525 0 0 1 3.517 3.512 3.525 3.525 0 0 1-3.517 3.512h-1.7v4.097H43.43V3.847zm8.965 27.218-11.487-2.107c-.117 0-.234-.117-.293-.175-1.113-1.347-8.205-8.78-12.835-8.78H11.546c-3.81 0-7.268 3.57-9.436 6.555C.703 28.431 0 30.714 0 33.056v6.79a3.925 3.925 0 0 0 3.927 3.921h.879c.703 2.81 3.223 4.917 6.27 4.917 3.049 0 5.569-2.107 6.272-4.917h21.158c.703 2.81 3.223 4.917 6.27 4.917 3.049 0 5.568-2.107 6.272-4.917h.117c1.934 0 3.634-1.463 3.869-3.395l.644-4.916c.175-2.108-1.231-4.04-3.282-4.39zM10.96 45.582a3.4 3.4 0 0 1-3.4-3.395 3.4 3.4 0 0 1 6.799 0c.059 1.873-1.465 3.395-3.4 3.395zm7.677-15.687H8.44c-.527 0-.879-.527-.586-.995 1.524-2.693 5.334-5.327 7.209-5.327h2.579c.351 0 .644.234.703.585l.996 4.917c.06.41-.293.82-.703.82zm16.41 0H23.795a.696.696 0 0 1-.703-.586l-.997-4.917a.708.708 0 0 1 .704-.82h4.98c1.7 0 5.217 2.694 7.737 5.093.469.469.176 1.23-.468 1.23zm9.612 15.687a3.4 3.4 0 0 1-3.4-3.395 3.4 3.4 0 0 1 6.8 0 3.4 3.4 0 0 1-3.4 3.395z" fill="#596B86"/></svg><svg fill="none" viewBox="0 0 55 52" id="services-icon3" xmlns="http://www.w3.org/2000/svg"><path fill-rule="evenodd" clip-rule="evenodd" d="M14.153 11.795c2.666 0 4.84-2.481 4.84-5.524S16.818.747 14.152.747c-2.665 0-4.84 2.482-4.84 5.524s2.175 5.524 4.84 5.524zm-5.431 3.357c.993-2.082 3.466-2.954 5.525-1.95a4.142 4.142 0 0 1 1.815 1.729c.894 1.351 2.366 2.989 4.18 4.33 1.451 1.073 3.096 1.932 4.785 2.245a2.088 2.088 0 0 1 1.66 2.433 2.07 2.07 0 0 1-2.406 1.68c-2.368-.44-4.584-1.575-6.486-2.983a22.1 22.1 0 0 1-2.135-1.802 58.429 58.429 0 0 0-.331 2.041c-.413 2.81-.672 5.903-.672 7.32 0 1.936 1.685 4.757 3.062 8.288 1.243 3.187 2.125 6.86 2.185 10.61.02 1.347-1.042 2.455-2.373 2.476-1.33.021-2.427-1.053-2.448-2.399-.05-3.095-.803-6.187-1.863-8.91a29.052 29.052 0 0 0-1.893-3.962c-.358 2.304-.99 4.778-1.94 7.06-1.267 3.044-3.11 5.795-5.64 7.499a2.398 2.398 0 0 1-3.346-.688 2.459 2.459 0 0 1 .68-3.384c1.656-1.116 2.933-3.084 3.862-5.32 1.873-4.499 1.417-6.002 1.417-11.27 0-1.702.298-5.317.77-8.533.383-2.612.92-5.106 1.591-6.51zM28.94 25.33h23.508v-4.144a.693.693 0 0 1 1.383 0v4.143c.38 0 .692.311.692.691 0 .38-.311.69-.692.69v6.906c.38 0 .692.31.692.69 0 .38-.311.692-.692.692v6.905c.38 0 .692.311.692.69 0 .38-.311.691-.692.691v4.144c0 .38-.311.69-.691.69a.693.693 0 0 1-.692-.69v-4.144H28.94v4.144c0 .38-.312.69-.692.69a.693.693 0 0 1-.691-.69v-4.144a.693.693 0 0 1-.691-.69c0-.38.31-.691.69-.691v-6.907a.693.693 0 0 1-.69-.69c0-.38.31-.69.69-.69V26.71a.693.693 0 0 1-.69-.69c0-.38.31-.692.69-.692v-4.143a.693.693 0 0 1 1.383 0v4.144zm23.507 1.38H28.94v6.905h23.508l-.001-6.905zm0 8.286H28.94v6.906h23.508l-.001-6.906zM28.249 51.573c.761 0 1.382-.62 1.382-1.382 0-.762-.62-1.383-1.382-1.383-.762 0-1.383.621-1.383 1.383 0 .761.62 1.382 1.383 1.382zm24.89 0c.762 0 1.383-.62 1.383-1.382 0-.762-.62-1.383-1.383-1.383-.762 0-1.382.621-1.382 1.383 0 .761.62 1.382 1.382 1.382z" fill="#596B86"/><path fill-rule="evenodd" clip-rule="evenodd" d="M37.498 18.06a6.908 6.908 0 0 1 6.33 6.882H30c0-3.618 2.786-6.585 6.33-6.881a.691.691 0 1 1 1.168 0zm11.492-6.542c0 1.905 1.383 2.326 1.383 4.143v8.287c0 .38-.312.691-.692.691h-3.457a.694.694 0 0 1-.692-.69V20.84h3.458v-3.453h-3.458V15.66c0-1.817 1.383-2.238 1.383-4.143v-2.07h2.075v2.071zm-2.073-5.373h2.074v2.766h-2.074V6.145z" fill="#596B86"/></svg><svg fill="none" viewBox="0 0 50 50" id="services-icon4" xmlns="http://www.w3.org/2000/svg"><path fill-rule="evenodd" clip-rule="evenodd" d="m6.435 24.497 9.77 9.639a1.97 1.97 0 0 0 1.383.565h30.458c.518 0 1.015.203 1.382.565.366.361.572.852.572 1.363v5.783c0 .472-.176.928-.494 1.281a1.964 1.964 0 0 1-1.232.634l-.228.013H44.26l1.818 2.527.008.01a1.913 1.913 0 0 1-.49 2.691l-.038.027c-.423.289-.944.4-1.45.313a1.958 1.958 0 0 1-1.254-.783l-3.436-4.78-.004-.003H10.908l-.004.004-3.436 4.779a1.958 1.958 0 0 1-1.254.783 1.977 1.977 0 0 1-1.45-.313l-.04-.027a1.91 1.91 0 0 1-.482-2.699L6.06 44.34H3.1a1.96 1.96 0 0 1-1.693-.964 1.906 1.906 0 0 1 0-1.928 1.96 1.96 0 0 1 1.693-.964l3.908-3.855L.572 30.28a1.914 1.914 0 0 1 0-2.725l3.1-3.058a1.967 1.967 0 0 1 1.381-.564c.518 0 1.015.202 1.382.564zm2.527 14.06-1.955 1.928h3.733a1.93 1.93 0 0 0-.397-.565l-1.381-1.363zm21.496-19.279v13.495H26.55V19.278H12.87c-.829 0-1.657-.694-1.89-1.49a17.248 17.248 0 0 1 4.93-10.622 17.687 17.687 0 0 1 10.64-5.132v-.106c0-.69.372-1.326.977-1.67a1.978 1.978 0 0 1 1.954 0c.605.344.977.98.977 1.67v.106c4.04.446 7.8 2.26 10.638 5.13a17.253 17.253 0 0 1 4.931 10.62c-.23.8-1.06 1.494-1.89 1.494H30.459z" fill="#596B86"/></svg><svg fill="none" viewBox="0 0 59 50" id="services-icon5" xmlns="http://www.w3.org/2000/svg"><path d="M32.337 46.245a3.205 3.205 0 0 1-3.207 3.203 3.205 3.205 0 0 1-3.207-3.203 3.205 3.205 0 0 1 3.207-3.203 3.205 3.205 0 0 1 3.207 3.203zM42.646 30.35a21.388 21.388 0 0 0-27.03 0 2.924 2.924 0 0 0 1.562 5.204c.783.069 1.56-.18 2.158-.689a15.53 15.53 0 0 1 19.59 0 2.93 2.93 0 0 0 4.817-2.532 2.923 2.923 0 0 0-1.097-1.983z" fill="#596B86"/><path d="M55.236 24.54c.647-7.082-5.365-13.728-12.482-13.812C38.85-2.732 21.34-3.805 15.98 9.092 7.592 11.086 2.754 16.977 4.05 23.917.657 25.564-.382 29.182.12 31.974a6.611 6.611 0 0 0 2.26 4.038 6.629 6.629 0 0 0 4.354 1.572h7.439a.697.697 0 0 0 .432-1.22 4.33 4.33 0 0 1 .14-6.587 22.762 22.762 0 0 1 28.772 0c2.054 1.593 2.146 4.95.123 6.601a.69.69 0 0 0 .449 1.206h7.349c3.837.179 6.764-3.312 6.814-7.08-.08-2.667-1.146-4.766-3.015-5.964zm-44.605.556a.687.687 0 0 1-.93.28 5.901 5.901 0 0 0-4.619-.417.686.686 0 0 0 .426-.837 5.816 5.816 0 0 1-.132-.669 7.459 7.459 0 0 1 4.975.715.685.685 0 0 1 .28.928zm14.518-13.855a.687.687 0 0 1-.935.265 11.526 11.526 0 0 0-7.56-1.167.686.686 0 0 0 .468-.416c.152-.375.312-.746.49-1.103a12.926 12.926 0 0 1 7.272 1.488c.33.184.45.602.265.933zm7.793 5.692a.687.687 0 1 1-1.117-.796 12.71 12.71 0 0 1 9.492-5.381c.092.274.175.549.252.832a.71.71 0 0 0 .665.509 11.332 11.332 0 0 0-9.292 4.836zm18.18 7.724a.687.687 0 1 1 0-1.372 7.232 7.232 0 0 1 2.772.544c-.005.334-.028.673-.065 1.007a.687.687 0 0 0 .321.659 5.811 5.811 0 0 0-3.028-.838z" fill="#596B86"/><path d="M36.122 36.637a12.458 12.458 0 0 0-13.983 0 2.928 2.928 0 0 0 .446 5.053c.95.44 2.063.343 2.921-.258a6.571 6.571 0 0 1 7.248 0 2.937 2.937 0 0 0 4.085-.716 2.927 2.927 0 0 0-.717-4.08z" fill="#596B86"/></svg><svg fill="none" viewBox="0 0 70 50" id="services-icon6" xmlns="http://www.w3.org/2000/svg"><path d="M69.996 12v-1.627c0-.234-.022-.453-.029-.684.002-.046.026-.085.026-.13V3.045A2.45 2.45 0 0 0 67.547.603h-1.63c-2.24 0-4.075 4.398-4.075 9.77v14.74a4.076 4.076 0 0 1 3.181 3.175h.08v18.727a2.45 2.45 0 0 0 2.443 2.441h.006A2.453 2.453 0 0 0 70 47.015V12h-.004zM10.591.511a.816.816 0 0 0-.814.814v11.401a.814.814 0 0 1-.815.814.813.813 0 0 1-.815-.814V1.325A.816.816 0 0 0 7.333.51a.816.816 0 0 0-.815.814v11.401a.814.814 0 0 1-1.63 0v-11.4a.815.815 0 0 0-1.63 0v11.401a.816.816 0 0 1-1.628 0V1.325a.815.815 0 0 0-1.63 0v15.123c0 1.561 1.37 2.886 3.26 3.387v27.089a2.45 2.45 0 0 0 2.447 2.441 2.452 2.452 0 0 0 2.446-2.441L8.15 19.835c1.89-.5 3.261-1.826 3.261-3.387V1.325a.823.823 0 0 0-.819-.814zM35 9.835c-6.445 0-11.668 5.218-11.668 11.655H46.67C46.668 15.054 41.445 9.835 35 9.835zm0 2.098c4.556 0 8.377 3.194 9.337 7.458H25.664c.96-4.264 4.78-7.458 9.336-7.458zM33.948.511h2.098v6.993h-2.098V.511zM16.932 8.927l6.064 3.5-1.05 1.818-6.064-3.5 1.05-1.818zM25.57 2.38l3.5 6.056-1.819 1.049-3.5-6.056 1.82-1.049zm27.534 6.543 1.05 1.818-6.06 3.504-1.051-1.818 6.06-3.504zm-8.64-6.543 1.818 1.05-3.504 6.053-1.819-1.05 3.505-6.053zM52.05 26l-6.61.002H19v9.903c0 5.445 4.465 9.903 9.916 9.903h11.569c4.288 0 7.925-2.773 9.3-6.601h2.265a6.61 6.61 0 0 0 6.611-6.605c0-3.645-2.962-6.602-6.61-6.602h-.002zm0 8.752h-1.653v-4.293h1.652a2.147 2.147 0 1 1 0 4.293z" fill="#596B86"/></svg><svg fill="none" viewBox="0 0 98 98" id="touch-1" xmlns="http://www.w3.org/2000/svg"><path d="M48.566 74.045 24.611 98V74.045H0l24.611-24.611h23.955v24.61z" fill="#D2DCE9"/><path d="M49.434 25.05 25.05 49.435V25.05H0L25.05 0h24.384v25.05zM98 74.045 74.045 98V74.045H49.434l24.61-24.611H98v24.61z" fill="#D2DCE9"/><path d="M98 25.05 74.045 49.435V25.05H49.434L74.044 0H98v25.05z" fill="#D2DCE9"/></svg><svg fill="none" viewBox="0 0 79 79" id="touch-2" xmlns="http://www.w3.org/2000/svg"><path d="M39 59.764 19.764 79V59.764H0L19.764 40H39v19.764zm1-39.494L20.27 40V20.27H0L20.27 0H40v20.27zm39 39.494L59.764 79V59.764H40L59.764 40H79v19.764zm0-39.494L59.764 40V20.27H40L59.764 0H79v20.27z" fill="#D2DCE9"/></svg><svg fill="none" viewBox="0 0 17 14" id="twitter" xmlns="http://www.w3.org/2000/svg"><path d="M16.557 1.672a6.468 6.468 0 0 1-1.905.547A3.447 3.447 0 0 0 16.11.309c-.64.394-1.35.683-2.105.835A3.239 3.239 0 0 0 11.589.058c-1.83 0-3.314 1.543-3.314 3.445 0 .27.03.532.086.786-2.753-.145-5.195-1.518-6.83-3.602a3.532 3.532 0 0 0-.448 1.735c0 1.196.584 2.249 1.474 2.869a3.253 3.253 0 0 1-1.502-.43v.04c0 1.672 1.142 3.063 2.657 3.38a3.14 3.14 0 0 1-.871.124c-.214 0-.423-.026-.625-.064.422 1.366 1.646 2.365 3.095 2.394a6.498 6.498 0 0 1-4.905 1.426 9.146 9.146 0 0 0 5.08 1.546c6.094 0 9.428-5.25 9.428-9.806 0-.149-.004-.298-.011-.444a6.7 6.7 0 0 0 1.654-1.785z" fill="#00B2FF"/></svg></svg>