<svg width="17" height="14" fill="none" xmlns="http://www.w3.org/2000/svg"><path d="M16.557 1.672a6.468 6.468 0 01-1.905.547A3.447 3.447 0 0016.11.309c-.64.394-1.35.683-2.105.835A3.239 3.239 0 0011.589.058c-1.83 0-3.314 1.543-3.314 3.445 0 .27.03.532.086.786-2.753-.145-5.195-1.518-6.83-3.602a3.532 3.532 0 00-.448 1.735c0 1.196.584 2.249 1.474 2.869a3.253 3.253 0 01-1.502-.43v.04c0 1.672 1.142 3.063 2.657 3.38a3.14 3.14 0 01-.871.124c-.214 0-.423-.026-.625-.064.422 1.366 1.646 2.365 3.095 2.394a6.498 6.498 0 01-4.905 1.426 9.146 9.146 0 005.08 1.546c6.094 0 9.428-5.25 9.428-9.806 0-.149-.004-.298-.011-.444a6.7 6.7 0 001.654-1.785z" fill="#00B2FF"/></svg>